<svg width="442" height="120" fill="none" xmlns="http://www.w3.org/2000/svg"><path d="M140.369 102.582c-.507 2.937-1.724 5.57-3.448 8-1.826 2.431-4.057 4.355-6.897 5.772-2.84 1.418-5.883 2.127-9.432 2.127-3.449 0-6.39-.709-8.621-2.127-2.232-1.417-3.753-3.341-4.564-5.772-.812-2.43-1.015-5.063-.406-7.898.507-2.735 1.623-5.367 3.245-7.798 1.623-2.43 3.855-4.456 6.694-5.975 2.84-1.519 6.086-2.329 9.838-2.329 3.347 0 6.187.71 8.418 2.127 2.232 1.418 3.854 3.342 4.666 5.772.913 2.33 1.014 5.063.507 8.101zm-7.911-4.658c-.406-1.418-1.217-2.532-2.434-3.342s-2.739-1.215-4.564-1.215a11.54 11.54 0 00-4.97 1.114c-1.521.81-2.738 1.823-3.753 3.24-1.014 1.418-1.622 2.937-1.927 4.76-.304 1.722-.304 3.342.203 4.658.507 1.418 1.319 2.431 2.536 3.241 1.217.709 2.637 1.114 4.361 1.114 2.637 0 4.97-.81 6.998-2.431 1.927-1.62 3.246-3.848 3.753-6.683a9.423 9.423 0 00-.203-4.456zm-31.644.709c-1.014 1.215-2.231 2.126-3.651 2.633 2.028.709 3.448 1.721 4.26 3.139.811 1.418 1.014 3.038.71 4.962-.609 3.241-2.13 5.468-4.564 6.785-2.434 1.316-5.477 1.924-9.23 1.924H75.357l3.448-18.532 9.128-7.088h-7.81l1.015-5.469h12.78c3.143 0 5.578.71 7.099 2.026 1.521 1.316 2.13 3.139 1.724 5.468-.203 1.519-.913 2.937-1.927 4.152zm-16.938 14.582h3.956c4.057 0 6.288-1.418 6.795-4.253.508-2.835-1.217-4.354-5.274-4.354h-3.955l-1.522 8.607zM94.73 93.772c-.609-.607-1.724-.911-3.347-.911h-3.55l-1.521 7.088h3.245c1.623 0 2.942-.303 3.956-1.012.912-.608 1.623-1.722 1.825-3.14.203-1.417.102-1.417-.608-2.025zm-25.052 16.81c-1.825 2.431-4.056 4.355-6.896 5.772-2.84 1.418-5.883 2.127-9.433 2.127-3.448 0-6.39-.709-8.62-2.127-2.232-1.417-3.753-3.341-4.565-5.772-.405-1.316-.71-2.633-.71-4.05l8.926-6.886h.101c-.406.911-.811 1.924-1.014 3.038-.305 1.721-.305 3.341.203 4.658.507 1.417 1.318 2.43 2.535 3.24 1.217.709 2.637 1.114 4.361 1.114 2.637 0 4.97-.81 6.999-2.43 1.927-1.62 3.245-3.848 3.752-6.684a9.783 9.783 0 00-.203-4.557c-.405-1.417-1.217-2.531-2.434-3.342-1.217-.81-2.738-1.215-4.564-1.215-.507 0-.913 0-1.42.102H44.12c1.521-1.823 3.448-3.342 5.68-4.659 2.84-1.519 6.085-2.329 9.837-2.329 3.347 0 6.187.71 8.419 2.127 2.23 1.418 3.854 3.342 4.665 5.772.913 2.43 1.014 5.165.507 8.101-.608 2.937-1.825 5.57-3.55 8zm-45.437 7.494l2.333-12.557H12.069l-2.332 12.557H2.13l5.882-31.089h7.607l-2.231 12.051H27.89l2.232-12.05h7.606l-5.882 31.088H24.24z" fill="#fff"/><path fill-rule="evenodd" clip-rule="evenodd" d="M439.059 96.203c-.203 1.721-.71 3.24-1.623 4.658-.913 1.417-2.231 2.43-3.955 3.24-1.725.81-3.652 1.215-6.086 1.215h-5.477l-1.217 11.95h-7.606l3.042-30.279h12.678c3.448 0 6.085.81 7.911 2.43 1.826 1.621 2.637 3.849 2.333 6.785zm-8.621-3.038c-.71-.608-1.927-.912-3.651-.912h-3.449l-.811 8h3.753c3.042 0 4.766-1.316 5.071-3.95.101-1.518-.203-2.53-.913-3.138zm-33.571-.81l-.71 6.683h12.374l-.508 5.468H395.65l-.71 7.393h13.286l-.507 5.468h-20.893l2.029-19.645 6.693-5.266h-6.186l.507-5.469h20.589l-.507 5.469h-13.084v-.102zm-18.358 18.329c-2.738 2.126-6.491 3.341-11.055 3.443l-.405 3.544h-7.303l.406-3.544c-2.941-.102-5.477-.608-7.505-1.621-2.029-1.012-3.652-2.43-4.666-4.152-1.014-1.822-1.42-3.848-1.115-6.278.405-3.544 1.927-6.278 4.665-8.405s6.39-3.24 11.055-3.443l.406-3.544h7.302l-.405 3.544c4.564.202 8.012 1.316 10.345 3.443 2.332 2.126 3.347 4.86 2.941 8.405-.406 3.544-1.927 6.38-4.666 8.608zm-21.805-13.367c-1.319 1.113-2.029 2.632-2.232 4.759-.405 3.949 1.623 6.177 6.187 6.481l1.319-12.86c-2.232 0-3.956.607-5.274 1.62zm17.546.1c-1.015-1.113-2.739-1.72-4.97-1.72l-1.318 12.86c2.231 0 4.056-.608 5.273-1.722 1.319-1.113 2.029-2.632 2.232-4.658.304-2.126-.102-3.645-1.217-4.76zm-34.18-3.949a15.33 15.33 0 00-4.868-.81c-2.13 0-4.057.405-5.781 1.317-1.623.911-2.941 2.025-3.854 3.544-.913 1.418-1.522 3.038-1.623 4.759-.203 1.722.102 3.241.71 4.659.609 1.417 1.724 2.531 3.144 3.341 1.42.811 3.246 1.216 5.274 1.216 3.55 0 6.998-1.114 10.548-3.342l-.71 6.785c-3.448 1.721-7.404 2.633-11.765 2.633-3.347 0-6.288-.709-8.621-2.026-2.333-1.316-4.158-3.24-5.172-5.569-1.116-2.329-1.522-4.962-1.217-7.899.304-3.14 1.318-5.873 3.042-8.203 1.724-2.329 3.854-4.151 6.491-5.468a20.875 20.875 0 018.824-1.924c3.651 0 7.302.81 10.954 2.33l-.71 6.986c-1.623-.91-3.144-1.721-4.666-2.329zm-38.135 23.798l1.217-12.253h-14.503l-1.217 12.253h-7.607l3.043-30.279h7.607l-1.217 11.747h14.503l1.217-11.747h7.607l-3.043 30.279h-7.607zm-35.193-6.988h-12.881l-3.55 6.988h-7.708l16.126-30.38h7.911l10.143 30.38h-7.709l-2.332-6.988zm-4.869-15.898l-5.578 11.038h8.925l-3.347-11.038zm-18.357 6.481c-1.014 1.417-2.434 2.43-4.26 3.24-1.724.81-3.854 1.215-6.187 1.215h-5.476l-2.333 11.95h-4.767l3.043-30.279h12.779c3.448 0 5.984.81 7.708 2.43 1.623 1.621 2.13 3.849 1.623 6.785a13.005 13.005 0 01-2.13 4.659zm-6.288-7.696c-.609-.608-1.826-.912-3.55-.912h-3.448l-1.522 8h3.753c3.042 0 4.868-1.316 5.375-3.95.304-1.518.102-2.53-.608-3.138zm-29.007.1l-4.463 24.001h-7.607l3.246-17.317 8.418-6.48h-7.201v-.102h-10.751l.609-6.278h29.108l-.608 6.278h-10.751v-.101z" fill="#fff"/><path fill-rule="evenodd" clip-rule="evenodd" d="M212.481 4.557l-49.19 113.114 6.491-76.962 42.699-36.152z" fill="url(#paint0_linear_57_287)"/><path fill-rule="evenodd" clip-rule="evenodd" d="M163.088 117.468l-15.214-58.126 19.473-16.608-4.259 74.734z" fill="url(#paint1_linear_57_287)"/><path fill-rule="evenodd" clip-rule="evenodd" d="M63.39 45.063l52.333 29.064 20.792-14.988-73.126-14.076z" fill="url(#paint2_linear_57_287)"/><path fill-rule="evenodd" clip-rule="evenodd" d="M184.386 24.608L63.186 44.76l75.864 12.556 45.336-32.708z" fill="url(#paint3_linear_57_287)"/><defs><linearGradient id="paint0_linear_57_287" x1="187.904" y1="117.688" x2="187.904" y2="4.526" gradientUnits="userSpaceOnUse"><stop stop-color="#201225"/><stop offset="1" stop-color="#B50DC0"/></linearGradient><linearGradient id="paint1_linear_57_287" x1="157.618" y1="117.421" x2="157.618" y2="42.736" gradientUnits="userSpaceOnUse"><stop stop-color="#201225"/><stop offset="1" stop-color="#53044F"/></linearGradient><linearGradient id="paint2_linear_57_287" x1="63.353" y1="59.612" x2="136.457" y2="59.612" gradientUnits="userSpaceOnUse"><stop stop-color="#AC300E"/><stop offset="1" stop-color="#64060D"/></linearGradient><linearGradient id="paint3_linear_57_287" x1="63.214" y1="40.95" x2="184.425" y2="40.95" gradientUnits="userSpaceOnUse"><stop stop-color="#5E0E10"/><stop offset="1" stop-color="#E84A0D"/></linearGradient></defs></svg>