<svg width="442" height="202" fill="none" xmlns="http://www.w3.org/2000/svg"><path d="M140.369 102.582c-.507 2.937-1.724 5.57-3.448 8-1.826 2.431-4.057 4.355-6.897 5.772-2.84 1.418-5.883 2.127-9.432 2.127-3.449 0-6.39-.709-8.621-2.127-2.232-1.417-3.753-3.341-4.564-5.772-.812-2.43-1.015-5.063-.406-7.898.507-2.735 1.623-5.367 3.245-7.798 1.623-2.43 3.855-4.456 6.694-5.975 2.84-1.519 6.086-2.329 9.838-2.329 3.347 0 6.187.71 8.418 2.127 2.232 1.418 3.854 3.342 4.666 5.772.913 2.33 1.014 5.063.507 8.101zm-7.911-4.658c-.406-1.418-1.217-2.532-2.434-3.342s-2.739-1.215-4.564-1.215a11.54 11.54 0 00-4.97 1.114c-1.521.81-2.738 1.823-3.753 3.24-1.014 1.418-1.622 2.937-1.927 4.76-.304 1.722-.304 3.342.203 4.658.507 1.418 1.319 2.431 2.536 3.241 1.217.709 2.637 1.114 4.361 1.114 2.637 0 4.97-.81 6.998-2.431 1.927-1.62 3.246-3.848 3.753-6.683a9.423 9.423 0 00-.203-4.456zm-31.644.709c-1.014 1.215-2.231 2.126-3.651 2.633 2.028.709 3.448 1.721 4.26 3.139.811 1.418 1.014 3.038.71 4.962-.609 3.241-2.13 5.468-4.564 6.785-2.434 1.316-5.477 1.924-9.23 1.924H75.357l3.448-18.532 9.128-7.088h-7.81l1.015-5.469h12.78c3.143 0 5.578.71 7.099 2.026 1.521 1.316 2.13 3.139 1.724 5.468-.203 1.519-.913 2.937-1.927 4.152zm-16.938 14.582h3.956c4.057 0 6.288-1.418 6.795-4.253.508-2.835-1.217-4.354-5.274-4.354h-3.955l-1.522 8.607zM94.73 93.772c-.609-.607-1.724-.911-3.347-.911h-3.55l-1.521 7.088h3.245c1.623 0 2.942-.303 3.956-1.012.912-.608 1.623-1.722 1.825-3.14.203-1.417.102-1.417-.608-2.025zm-25.052 16.81c-1.825 2.431-4.056 4.355-6.896 5.772-2.84 1.418-5.883 2.127-9.433 2.127-3.448 0-6.39-.709-8.62-2.127-2.232-1.417-3.753-3.341-4.565-5.772-.405-1.316-.71-2.633-.71-4.05l8.926-6.886h.101c-.406.911-.811 1.924-1.014 3.038-.305 1.721-.305 3.341.203 4.658.507 1.417 1.318 2.43 2.535 3.24 1.217.709 2.637 1.114 4.361 1.114 2.637 0 4.97-.81 6.999-2.43 1.927-1.62 3.245-3.848 3.752-6.684a9.782 9.782 0 00-.203-4.557c-.405-1.417-1.217-2.531-2.434-3.342-1.217-.81-2.738-1.215-4.564-1.215-.507 0-.913 0-1.42.102H44.12c1.521-1.823 3.448-3.342 5.68-4.659 2.84-1.519 6.085-2.329 9.837-2.329 3.347 0 6.187.71 8.419 2.127 2.23 1.418 3.854 3.342 4.665 5.772.913 2.43 1.014 5.165.507 8.101-.608 2.937-1.825 5.57-3.55 8zm-45.437 7.494l2.333-12.557H12.069l-2.332 12.557H2.13l5.882-31.089h7.607l-2.231 12.051H27.89l2.232-12.05h7.606l-5.882 31.088H24.24z" fill="#fff"/><path fill-rule="evenodd" clip-rule="evenodd" d="M439.059 96.203c-.203 1.721-.71 3.24-1.623 4.658-.913 1.417-2.231 2.43-3.955 3.24-1.725.81-3.652 1.215-6.086 1.215h-5.477l-1.217 11.95h-7.606l3.042-30.279h12.678c3.448 0 6.085.81 7.911 2.43 1.826 1.621 2.637 3.849 2.333 6.785zm-8.621-3.038c-.71-.608-1.927-.912-3.651-.912h-3.449l-.811 8h3.752c3.043 0 4.767-1.316 5.072-3.95.101-1.518-.203-2.53-.913-3.138zm-33.571-.81l-.71 6.683h12.374l-.508 5.468H395.65l-.71 7.393h13.286l-.507 5.468h-20.893l2.029-19.645 6.693-5.266h-6.186l.507-5.469h20.589l-.508 5.469h-13.083v-.102zm-18.358 18.329c-2.738 2.126-6.491 3.341-11.055 3.443l-.405 3.544h-7.303l.406-3.544c-2.941-.102-5.477-.608-7.505-1.621-2.029-1.012-3.652-2.43-4.666-4.152-1.014-1.822-1.42-3.848-1.115-6.278.405-3.544 1.927-6.278 4.665-8.405s6.39-3.24 11.055-3.443l.406-3.544h7.302l-.405 3.544c4.564.202 8.012 1.316 10.345 3.443 2.332 2.126 3.347 4.86 2.941 8.405-.406 3.544-1.927 6.38-4.666 8.608zm-21.805-13.367c-1.319 1.113-2.029 2.632-2.232 4.759-.405 3.949 1.623 6.177 6.187 6.481l1.319-12.86c-2.232 0-3.956.607-5.274 1.62zm17.546.1c-1.015-1.113-2.739-1.72-4.97-1.72l-1.319 12.86c2.232 0 4.057-.608 5.274-1.722 1.319-1.113 2.029-2.632 2.232-4.658.304-2.126-.102-3.645-1.217-4.76zm-34.18-3.949a15.33 15.33 0 00-4.868-.81c-2.13 0-4.057.405-5.781 1.317-1.623.911-2.941 2.025-3.854 3.544-.913 1.418-1.522 3.038-1.623 4.759-.203 1.722.101 3.241.71 4.659.609 1.417 1.724 2.531 3.144 3.341 1.42.811 3.246 1.216 5.274 1.216 3.55 0 6.998-1.114 10.548-3.342l-.71 6.785c-3.448 1.721-7.404 2.633-11.765 2.633-3.347 0-6.288-.709-8.621-2.026-2.333-1.316-4.158-3.24-5.172-5.569-1.116-2.329-1.522-4.962-1.218-7.899.305-3.14 1.319-5.873 3.043-8.203 1.724-2.329 3.854-4.151 6.491-5.468a20.875 20.875 0 018.824-1.924c3.651 0 7.302.81 10.954 2.33l-.71 6.986c-1.623-.91-3.144-1.721-4.666-2.329zm-38.135 23.798l1.217-12.253h-14.503l-1.217 12.253h-7.607l3.043-30.279h7.607l-1.218 11.747h14.504l1.217-11.747h7.607l-3.043 30.279h-7.607zm-35.193-6.988h-12.881l-3.55 6.988h-7.708l16.126-30.38h7.911l10.142 30.38h-7.708l-2.332-6.988zm-4.869-15.898l-5.578 11.038h8.925l-3.347-11.038zm-18.357 6.481c-1.014 1.417-2.434 2.43-4.26 3.24-1.724.81-3.854 1.215-6.187 1.215h-5.477l-2.332 11.95h-4.767l3.043-30.279h12.779c3.448 0 5.984.81 7.708 2.43 1.623 1.621 2.13 3.849 1.623 6.785a13.005 13.005 0 01-2.13 4.659zm-6.288-7.696c-.609-.608-1.826-.912-3.55-.912h-3.449l-1.521 8h3.753c3.042 0 4.868-1.316 5.375-3.95.304-1.518.102-2.53-.608-3.138zm-29.007.1l-4.463 24.001h-7.607l3.246-17.317 8.418-6.48h-7.201v-.102h-10.751l.609-6.278h29.108l-.608 6.278h-10.751v-.101z" fill="#fff"/><path fill-rule="evenodd" clip-rule="evenodd" d="M212.48 4.557l-49.19 113.114 6.492-76.962L212.48 4.557z" fill="url(#paint0_linear_48_7)"/><path fill-rule="evenodd" clip-rule="evenodd" d="M163.088 117.468l-15.214-58.126 19.473-16.608-4.259 74.734z" fill="url(#paint1_linear_48_7)"/><path fill-rule="evenodd" clip-rule="evenodd" d="M63.39 45.063l52.333 29.064 20.792-14.988-73.126-14.076z" fill="url(#paint2_linear_48_7)"/><path fill-rule="evenodd" clip-rule="evenodd" d="M184.386 24.608L63.186 44.76l75.864 12.556 45.336-32.708z" fill="url(#paint3_linear_48_7)"/><path d="M2.057 167v-14.251h3.256v5.774h6.302v-5.774h3.256V167h-3.256v-5.748H5.313V167H2.057zm16.136-7.106c0-1.345.326-2.584.976-3.718a7.27 7.27 0 012.742-2.716c1.178-.676 2.479-1.015 3.902-1.015 1.433 0 2.73.334 3.89 1.002a7.097 7.097 0 012.716 2.703c.65 1.134.975 2.382.975 3.744 0 1.002-.193 1.96-.58 2.874a7.59 7.59 0 01-1.582 2.373c-.668.668-1.477 1.2-2.426 1.595a7.83 7.83 0 01-3.045.594c-1.424 0-2.716-.334-3.876-1.002a7.223 7.223 0 01-2.716-2.703c-.65-1.134-.976-2.377-.976-3.731zm3.27 0c0 1.266.413 2.351 1.24 3.256.825.897 1.862 1.345 3.11 1.345 1.293 0 2.334-.444 3.125-1.331.791-.888 1.187-1.978 1.187-3.27 0-1.274-.414-2.355-1.24-3.243-.817-.897-1.859-1.345-3.124-1.345-1.284 0-2.32.44-3.112 1.319-.79.878-1.186 1.968-1.186 3.269zM36.73 167v-14.251h7.316c1.424 0 2.562.32 3.415.962.852.642 1.279 1.507 1.279 2.597 0 1.494-.765 2.584-2.294 3.27 1.96.553 2.94 1.74 2.94 3.559 0 1.196-.47 2.14-1.41 2.835-.941.685-2.224 1.028-3.85 1.028H36.73zm3.203-2.597h3.705c.782 0 1.38-.163 1.793-.488.422-.334.633-.782.633-1.345 0-.536-.22-.958-.66-1.265-.43-.308-1.072-.462-1.925-.462h-3.546v3.56zm0-5.775h3.349c.668 0 1.19-.158 1.569-.474.377-.325.566-.752.566-1.279 0-.492-.17-.883-.514-1.173-.343-.299-.865-.449-1.569-.449h-3.4v3.375zM52.655 167v-14.251h3.257v4.996h3.005c1.108 0 2.075.158 2.9.475a4.19 4.19 0 012.005 1.503c.51.685.764 1.529.764 2.531 0 1.468-.487 2.628-1.463 3.48-.967.844-2.29 1.266-3.968 1.266h-6.5zm3.257-2.65h2.808c.826 0 1.463-.18 1.911-.54.457-.361.686-.879.686-1.556 0-.633-.233-1.121-.699-1.463-.457-.343-1.107-.515-1.951-.515h-2.755v4.074zM66.749 167v-14.251h3.27V167h-3.27zm7.37 0v-14.251h3.176v9.558c2.461-3.498 4.711-6.684 6.75-9.558h3.085V167h-3.164v-9.505L77.19 167h-3.072zm2.293-19.657l1.99-.382c.388 1.23 1.135 1.846 2.242 1.846s1.855-.616 2.241-1.846l1.978.382c-.176 1.16-.642 2.079-1.398 2.756-.747.668-1.687 1.002-2.821 1.002-1.143 0-2.092-.339-2.848-1.016-.747-.676-1.208-1.59-1.384-2.742zm21.37 8.214v-2.808h12.472v2.808h-4.587V167h-3.296v-11.443h-4.588zm15.07 15.767v-18.575h3.256v2.373c1.266-1.785 2.878-2.677 4.838-2.677.853 0 1.675.167 2.466.501a6.73 6.73 0 012.122 1.424c.624.615 1.121 1.402 1.49 2.36.378.958.567 2.013.567 3.164 0 1.143-.189 2.189-.567 3.138-.369.949-.866 1.731-1.49 2.346a6.56 6.56 0 01-2.109 1.424 6.308 6.308 0 01-2.479.501c-1.951 0-3.564-.839-4.838-2.518v6.539h-3.256zm3.177-11.43c0 1.336.409 2.43 1.226 3.283.817.852 1.797 1.279 2.94 1.279 1.151 0 2.118-.418 2.9-1.253.782-.844 1.174-1.964 1.174-3.362 0-1.344-.396-2.439-1.187-3.282-.791-.853-1.753-1.279-2.887-1.279-1.143 0-2.123.43-2.94 1.292-.817.861-1.226 1.969-1.226 3.322zm13.935 2.953c0-1.529.527-2.689 1.582-3.48 1.063-.8 2.461-1.2 4.192-1.2 1.398 0 2.712.198 3.942.593v-.263c0-.994-.303-1.749-.909-2.268-.598-.527-1.464-.791-2.598-.791-1.283 0-2.641.299-4.073.896l-.897-2.623a14 14 0 012.558-.883c.835-.203 1.793-.304 2.874-.304 2.074 0 3.634.523 4.68 1.569 1.055 1.037 1.582 2.523 1.582 4.456V167h-3.243v-1.753c-1.152 1.371-2.69 2.056-4.614 2.056-.923 0-1.763-.162-2.519-.488a4.335 4.335 0 01-1.845-1.529c-.475-.685-.712-1.498-.712-2.439zm3.243-.118c0 .65.259 1.164.778 1.542.518.378 1.178.567 1.977.567 1.09 0 1.991-.277 2.703-.831.712-.562 1.068-1.283 1.068-2.162v-.817c-.949-.378-2.039-.567-3.27-.567-1.028 0-1.828.198-2.399.593-.571.396-.857.954-.857 1.675zM146.786 167v-14.251h3.256v5.774h6.302v-5.774h3.257V167h-3.257v-5.748h-6.302V167h-3.256zm16.137-7.053v-.053c0-1.336.316-2.571.949-3.705a7.186 7.186 0 012.65-2.729c1.143-.676 2.408-1.015 3.797-1.015 1.274 0 2.364.211 3.269.633a7.484 7.484 0 012.439 1.819l-2.03 2.189c-.554-.58-1.116-1.02-1.687-1.318-.572-.308-1.244-.462-2.018-.462-1.168 0-2.144.444-2.926 1.332-.783.879-1.174 1.946-1.174 3.203v.053c0 1.292.4 2.382 1.2 3.27.809.887 1.833 1.331 3.072 1.331.721 0 1.375-.154 1.964-.461.589-.308 1.165-.752 1.727-1.332l1.978 1.951c-.774.87-1.617 1.534-2.531 1.991-.906.457-2.009.686-3.31.686-1.388 0-2.649-.33-3.783-.989a7.172 7.172 0 01-2.637-2.69 7.468 7.468 0 01-.949-3.704zM179.007 167v-14.251h12.709V167h-3.27v-11.443h-6.183V167h-3.256zm16.031-7.106c0-1.345.325-2.584.976-3.718a7.267 7.267 0 012.742-2.716c1.178-.676 2.478-1.015 3.902-1.015 1.433 0 2.729.334 3.889 1.002a7.089 7.089 0 012.716 2.703c.651 1.134.976 2.382.976 3.744 0 1.002-.194 1.96-.58 2.874a7.593 7.593 0 01-1.582 2.373c-.668.668-1.477 1.2-2.426 1.595a7.828 7.828 0 01-3.046.594c-1.423 0-2.715-.334-3.876-1.002a7.219 7.219 0 01-2.715-2.703c-.651-1.134-.976-2.377-.976-3.731zm3.27 0c0 1.266.413 2.351 1.239 3.256.826.897 1.863 1.345 3.111 1.345 1.292 0 2.334-.444 3.125-1.331.791-.888 1.186-1.978 1.186-3.27 0-1.274-.413-2.355-1.239-3.243-.817-.897-1.859-1.345-3.125-1.345-1.283 0-2.32.44-3.111 1.319-.791.878-1.186 1.968-1.186 3.269zm15.266 11.43v-18.575h3.257v2.373c1.265-1.785 2.878-2.677 4.838-2.677.852 0 1.674.167 2.465.501a6.735 6.735 0 012.123 1.424c.624.615 1.12 1.402 1.49 2.36.378.958.566 2.013.566 3.164 0 1.143-.188 2.189-.566 3.138-.37.949-.866 1.731-1.49 2.346a6.564 6.564 0 01-2.11 1.424 6.307 6.307 0 01-2.478.501c-1.951 0-3.564-.839-4.838-2.518v6.539h-3.257zm3.177-11.43c0 1.336.409 2.43 1.227 3.283.817.852 1.797 1.279 2.939 1.279 1.152 0 2.119-.418 2.901-1.253.782-.844 1.173-1.964 1.173-3.362 0-1.344-.395-2.439-1.186-3.282-.791-.853-1.754-1.279-2.888-1.279-1.142 0-2.122.43-2.939 1.292-.818.861-1.227 1.969-1.227 3.322zm13.369-4.337v-2.808h12.471v2.808h-4.588V167h-3.295v-11.443h-4.588zM245.188 167v-14.251h3.257v5.774h6.302v-5.774h3.256V167h-3.256v-5.748h-6.302V167h-3.257zm16.928 0v-14.251h3.257v4.996h3.005c1.108 0 2.075.158 2.901.475a4.19 4.19 0 012.004 1.503c.509.685.764 1.529.764 2.531 0 1.468-.487 2.628-1.463 3.48-.967.844-2.29 1.266-3.968 1.266h-6.5zm3.257-2.65h2.808c.826 0 1.463-.18 1.911-.54.457-.361.686-.879.686-1.556 0-.633-.233-1.121-.699-1.463-.457-.343-1.107-.515-1.951-.515h-2.755v4.074zm10.836 2.65v-14.251h3.27V167h-3.27zm7.37 0v-14.251h3.177v9.558c2.461-3.498 4.711-6.684 6.75-9.558h3.085V167h-3.164v-9.505L286.651 167h-3.072zm2.294-19.657l1.991-.382c.386 1.23 1.134 1.846 2.241 1.846 1.107 0 1.854-.616 2.241-1.846l1.978.382c-.176 1.16-.642 2.079-1.398 2.756-.747.668-1.687 1.002-2.821 1.002-1.143 0-2.092-.339-2.848-1.016-.747-.676-1.208-1.59-1.384-2.742zm22.122 12.604v-.053c0-1.336.317-2.571.949-3.705a7.186 7.186 0 012.65-2.729c1.143-.676 2.408-1.015 3.797-1.015 1.275 0 2.364.211 3.27.633a7.484 7.484 0 012.439 1.819l-2.031 2.189c-.553-.58-1.116-1.02-1.687-1.318-.571-.308-1.244-.462-2.017-.462-1.169 0-2.145.444-2.927 1.332-.782.879-1.173 1.946-1.173 3.203v.053c0 1.292.4 2.382 1.199 3.27.809.887 1.833 1.331 3.072 1.331a4.18 4.18 0 001.964-.461c.589-.308 1.165-.752 1.728-1.332l1.977 1.951c-.773.87-1.617 1.534-2.531 1.991-.905.457-2.008.686-3.309.686-1.389 0-2.65-.33-3.784-.989a7.172 7.172 0 01-2.637-2.69 7.479 7.479 0 01-.949-3.704zm14.542-4.39v-2.808h12.471v2.808h-4.588V167h-3.295v-11.443h-4.588zm14.093 7.29c0-1.529.527-2.689 1.582-3.48 1.063-.8 2.461-1.2 4.192-1.2 1.398 0 2.712.198 3.942.593v-.263c0-.994-.303-1.749-.909-2.268-.598-.527-1.464-.791-2.598-.791-1.283 0-2.641.299-4.073.896l-.897-2.623a14 14 0 012.558-.883c.835-.203 1.793-.304 2.874-.304 2.074 0 3.634.523 4.68 1.569 1.055 1.037 1.582 2.523 1.582 4.456V167h-3.243v-1.753c-1.152 1.371-2.69 2.056-4.614 2.056-.923 0-1.763-.162-2.518-.488a4.331 4.331 0 01-1.846-1.529c-.475-.685-.712-1.498-.712-2.439zm3.243-.118c0 .65.259 1.164.778 1.542.518.378 1.178.567 1.977.567 1.09 0 1.991-.277 2.703-.831.712-.562 1.068-1.283 1.068-2.162v-.817c-.949-.378-2.039-.567-3.27-.567-1.028 0-1.828.198-2.399.593-.571.396-.857.954-.857 1.675zM353.452 167v-14.251h3.256v5.774h6.302v-5.774h3.257V167h-3.257v-5.748h-6.302V167h-3.256zm15.28-2.808h1.529c1.064-2.127 1.595-5.357 1.595-9.69v-1.753h11.048v11.443h2.031l-.435 6.236h-2.729V167h-9.994l-.316 3.428h-2.729v-6.236zm4.878 0h6.025v-8.635h-4.694v1.885c0 2.628-.443 4.878-1.331 6.75zm13.065-1.345c0-1.529.527-2.689 1.582-3.48 1.063-.8 2.461-1.2 4.192-1.2 1.398 0 2.712.198 3.942.593v-.263c0-.994-.303-1.749-.91-2.268-.597-.527-1.463-.791-2.597-.791-1.283 0-2.641.299-4.073.896l-.897-2.623a14 14 0 012.558-.883c.835-.203 1.793-.304 2.874-.304 2.074 0 3.634.523 4.68 1.569 1.055 1.037 1.582 2.523 1.582 4.456V167h-3.243v-1.753c-1.152 1.371-2.69 2.056-4.615 2.056-.922 0-1.762-.162-2.518-.488a4.335 4.335 0 01-1.845-1.529c-.475-.685-.712-1.498-.712-2.439zm3.243-.118c0 .65.259 1.164.778 1.542.518.378 1.178.567 1.977.567 1.09 0 1.991-.277 2.703-.831.712-.562 1.068-1.283 1.068-2.162v-.817c-.949-.378-2.039-.567-3.27-.567-1.028 0-1.828.198-2.399.593-.571.396-.857.954-.857 1.675zm13.579 8.595v-18.575h3.256v2.373c1.266-1.785 2.879-2.677 4.839-2.677.852 0 1.674.167 2.465.501a6.735 6.735 0 012.123 1.424c.624.615 1.12 1.402 1.489 2.36.378.958.567 2.013.567 3.164 0 1.143-.189 2.189-.567 3.138-.369.949-.865 1.731-1.489 2.346a6.575 6.575 0 01-2.11 1.424 6.307 6.307 0 01-2.478.501c-1.951 0-3.564-.839-4.839-2.518v6.539h-3.256zm3.177-11.43c0 1.336.409 2.43 1.226 3.283.818.852 1.798 1.279 2.94 1.279 1.152 0 2.118-.418 2.901-1.253.782-.844 1.173-1.964 1.173-3.362 0-1.344-.395-2.439-1.186-3.282-.791-.853-1.754-1.279-2.888-1.279-1.142 0-2.122.43-2.94 1.292-.817.861-1.226 1.969-1.226 3.322zm13.368-4.337v-2.808h12.472v2.808h-4.588V167h-3.296v-11.443h-4.588z" fill="#E84A0D"/><defs><linearGradient id="paint0_linear_48_7" x1="187.904" y1="117.688" x2="187.904" y2="4.526" gradientUnits="userSpaceOnUse"><stop stop-color="#201225"/><stop offset="1" stop-color="#B50DC0"/></linearGradient><linearGradient id="paint1_linear_48_7" x1="157.618" y1="117.421" x2="157.618" y2="42.736" gradientUnits="userSpaceOnUse"><stop stop-color="#201225"/><stop offset="1" stop-color="#53044F"/></linearGradient><linearGradient id="paint2_linear_48_7" x1="63.353" y1="59.612" x2="136.457" y2="59.612" gradientUnits="userSpaceOnUse"><stop stop-color="#AC300E"/><stop offset="1" stop-color="#64060D"/></linearGradient><linearGradient id="paint3_linear_48_7" x1="63.214" y1="40.95" x2="184.425" y2="40.95" gradientUnits="userSpaceOnUse"><stop stop-color="#5E0E10"/><stop offset="1" stop-color="#E84A0D"/></linearGradient></defs></svg>