<svg width="16" height="17" fill="none" xmlns="http://www.w3.org/2000/svg"><path d="M16 8.5S13 3 8 3 0 8.5 0 8.5 3 14 8 14s8-5.5 8-5.5zm-14.827 0c.484-.735 1.04-1.42 1.66-2.043C4.12 5.168 5.88 4 8 4c2.12 0 3.879 1.168 5.168 2.457a13.13 13.13 0 011.66 2.043c-.058.087-.122.183-.195.288-.335.48-.83 1.12-1.465 1.755C11.879 11.832 10.119 13 8 13c-2.12 0-3.879-1.168-5.168-2.457A13.134 13.134 0 011.172 8.5h.001z" fill="#fff"/><path d="M8 6a2.5 2.5 0 100 5 2.5 2.5 0 000-5zM4.5 8.5a3.5 3.5 0 117 0 3.5 3.5 0 01-7 0z" fill="#fff"/></svg>